<svg data-v-423bf9ae="" xmlns="http://www.w3.org/2000/svg" viewBox="0 0 258.1163461540155 60" class="font"><!----><!----><!----><g data-v-423bf9ae="" id="f92dcaa0-dfac-4f27-ab9a-5a21846b0a20" fill="black" transform="matrix(5.540166244014879,0,0,5.540166244014879,-0.5540197710407995,-23.601110421221115)"><path d="M0.10 4.26L3.29 10.40L3.29 14.92L5.24 14.92L5.24 10.43L8.44 4.26L6.31 4.26L4.30 8.72L2.31 4.26ZM12.94 14.92L14.60 14.92L14.60 9.24C14.60 7.07 13.38 6.34 11.59 6.34C9.62 6.34 8.58 7.17 8.58 9.24L10.28 9.24C10.28 8.26 10.72 7.90 11.58 7.90C12.40 7.90 12.81 8.32 12.81 9.28L12.81 10.14C12.42 10.09 11.96 10.05 11.59 10.05C9.30 10.05 8.33 11.00 8.33 12.70C8.33 14.25 9.32 15.09 10.75 15.09C11.69 15.09 12.42 14.80 12.87 14.28ZM12.81 12.05C12.81 13.01 12.12 13.54 11.35 13.54C10.58 13.54 10.19 13.19 10.19 12.54C10.19 11.77 10.61 11.37 11.75 11.37C12.01 11.37 12.52 11.40 12.81 11.45ZM20.02 6.34C19.07 6.34 18.44 6.59 17.96 7.08L17.88 6.51L16.24 6.51L16.24 14.92L18.13 14.92L18.13 9.39C18.13 8.44 18.63 8.01 19.42 8.01C20.36 8.01 20.66 8.47 20.66 9.62L20.66 14.92L22.55 14.92L22.55 9.60C22.55 8.46 23.06 8.01 23.86 8.01C24.79 8.01 25.10 8.47 25.10 9.58L25.10 14.92L26.99 14.92L26.99 9.38C26.99 7.28 26.26 6.34 24.32 6.34C23.30 6.34 22.50 6.69 22.04 7.34C21.62 6.65 20.96 6.34 20.02 6.34ZM30.69 4.26L28.74 4.26L28.74 14.92L30.69 14.92ZM32.49 6.51L32.49 14.92L34.38 14.92L34.38 9.42C34.38 8.44 34.87 8.01 35.67 8.01C36.61 8.01 36.92 8.47 36.92 9.58L36.92 14.92L38.81 14.92L38.81 9.38C38.81 7.34 38.07 6.34 36.25 6.34C35.35 6.34 34.65 6.59 34.22 7.10L34.13 6.51ZM44.87 11.93L44.87 12.08C44.87 13.01 44.49 13.44 43.53 13.44C42.55 13.44 42.18 12.96 42.18 11.80L42.18 9.60C42.18 8.43 42.57 8.01 43.54 8.01C44.48 8.01 44.84 8.41 44.84 9.32L44.84 9.48L46.68 9.48L46.68 9.31C46.68 7.32 45.68 6.34 43.51 6.34C41.36 6.34 40.29 7.36 40.29 9.63L40.29 11.79C40.29 14.07 41.33 15.09 43.48 15.09C45.71 15.09 46.69 14.07 46.69 12.05L46.69 11.93Z"></path></g><!----><!----></svg>